<svg xmlns="http://www.w3.org/2000/svg" viewBox="0 0 640 420" role="img" aria-labelledby="title desc">
  <title id="title">Ilustração da página Sobre</title>
  <desc id="desc">Cartão com gráfico e bloco de texto estilizado.</desc>
  <rect width="640" height="420" rx="32" fill="#ffffff"/>
  <rect x="48" y="48" width="544" height="324" rx="28" fill="#f8fafc"/>
  <rect x="88" y="88" width="224" height="220" rx="24" fill="#dbeafe"/>
  <path d="M136 248 L176 194 L214 220 L266 142" fill="none" stroke="#2563eb" stroke-width="18" stroke-linecap="round" stroke-linejoin="round"/>
  <circle cx="136" cy="248" r="14" fill="#1d4ed8"/>
  <circle cx="176" cy="194" r="14" fill="#1d4ed8"/>
  <circle cx="214" cy="220" r="14" fill="#1d4ed8"/>
  <circle cx="266" cy="142" r="14" fill="#1d4ed8"/>
  <rect x="352" y="102" width="184" height="22" rx="11" fill="#1f2937"/>
  <rect x="352" y="146" width="152" height="18" rx="9" fill="#94a3b8"/>
  <rect x="352" y="182" width="160" height="18" rx="9" fill="#cbd5e1"/>
  <rect x="352" y="218" width="138" height="18" rx="9" fill="#cbd5e1"/>
  <rect x="352" y="264" width="120" height="44" rx="18" fill="#0d6efd"/>
  <text x="412" y="293" fill="#ffffff" font-family="Arial, Helvetica, sans-serif" font-size="24" text-anchor="middle">Sobre</text>
</svg>
